<svg xmlns="http://www.w3.org/2000/svg" width="1200" height="900" viewBox="0 0 1200 900">
  <defs>
    <linearGradient id="bg" x1="0%" x2="100%" y1="0%" y2="100%">
      <stop offset="0%" stop-color="#fff1ec"/>
      <stop offset="100%" stop-color="#fff8e8"/>
    </linearGradient>
  </defs>
  <rect width="1200" height="900" fill="url(#bg)"/>
  <rect x="0" y="650" width="1200" height="250" fill="#f2d1ab"/>
  <ellipse cx="800" cy="520" rx="180" ry="48" fill="#ffffff"/>
  <ellipse cx="800" cy="520" rx="145" ry="34" fill="#ffe7b7"/>
  <ellipse cx="760" cy="510" rx="38" ry="22" fill="#f39b4a"/>
  <ellipse cx="830" cy="520" rx="44" ry="24" fill="#68b86f"/>
  <ellipse cx="890" cy="505" rx="32" ry="18" fill="#d85f5f"/>
  <rect x="650" y="420" width="18" height="170" rx="9" fill="#b56144"/>
  <rect x="680" y="420" width="18" height="170" rx="9" fill="#b56144"/>
  <rect x="940" y="405" width="18" height="190" rx="9" fill="#b56144"/>
  <path d="M980 405 C980 470, 980 545, 955 595" fill="none" stroke="#b56144" stroke-width="18" stroke-linecap="round"/>
  <text x="110" y="170" fill="#b95151" font-family="Noto Sans JP, sans-serif" font-size="58" font-weight="700">Meal Time</text>
  <text x="110" y="270" fill="#18324a" font-family="Noto Sans JP, sans-serif" font-size="90" font-weight="800">食事タイム</text>
  <text x="110" y="360" fill="#5d7083" font-family="Noto Sans JP, sans-serif" font-size="34">ごはんの時間がひと目で分かるテーブル構図</text>
</svg>
